G04*
G04 #@! TF.GenerationSoftware,Altium Limited,CircuitMaker,2.0.3 (51)*
G04*
G04 Layer_Physical_Order=2*
G04 Layer_Color=11436288*
%FSAX24Y24*%
%MOIN*%
G70*
G04*
G04 #@! TF.SameCoordinates,AC49E966-F875-4E81-9CB4-5C45FD5EEA16*
G04*
G04*
G04 #@! TF.FilePolarity,Positive*
G04*
G01*
G75*
%ADD13C,0.0100*%
%ADD18O,0.1575X0.1181*%
%ADD19C,0.0600*%
G36*
X051600Y002300D02*
X036600D01*
Y026100D01*
X051600D01*
Y002300D01*
D02*
G37*
G36*
Y026250D02*
X036600D01*
Y050000D01*
X051600D01*
Y026250D01*
D02*
G37*
%LPC*%
G36*
X048547Y025014D02*
X048153D01*
X048018Y025001D01*
X047888Y024961D01*
X047768Y024897D01*
X047662Y024811D01*
X047576Y024705D01*
X047512Y024586D01*
X047473Y024455D01*
X047459Y024320D01*
X047473Y024185D01*
X047512Y024054D01*
X047576Y023934D01*
X047662Y023829D01*
X047768Y023743D01*
X047888Y023679D01*
X048018Y023639D01*
X048153Y023626D01*
X048547D01*
X048682Y023639D01*
X048812Y023679D01*
X048932Y023743D01*
X049038Y023829D01*
X049124Y023934D01*
X049188Y024054D01*
X049227Y024185D01*
X049241Y024320D01*
X049227Y024455D01*
X049188Y024586D01*
X049124Y024705D01*
X049038Y024811D01*
X048932Y024897D01*
X048812Y024961D01*
X048682Y025001D01*
X048547Y025014D01*
D02*
G37*
G36*
Y019335D02*
X048153D01*
X048018Y019322D01*
X047888Y019282D01*
X047768Y019218D01*
X047662Y019132D01*
X047576Y019027D01*
X047512Y018907D01*
X047473Y018777D01*
X047459Y018641D01*
X047473Y018506D01*
X047512Y018376D01*
X047576Y018256D01*
X047662Y018151D01*
X047768Y018064D01*
X047888Y018000D01*
X048018Y017961D01*
X048153Y017947D01*
X048547D01*
X048682Y017961D01*
X048812Y018000D01*
X048932Y018064D01*
X049038Y018151D01*
X049124Y018256D01*
X049188Y018376D01*
X049227Y018506D01*
X049241Y018641D01*
X049227Y018777D01*
X049188Y018907D01*
X049124Y019027D01*
X049038Y019132D01*
X048932Y019218D01*
X048812Y019282D01*
X048682Y019322D01*
X048547Y019335D01*
D02*
G37*
G36*
X040047Y016478D02*
X039653D01*
X039518Y016465D01*
X039388Y016425D01*
X039268Y016361D01*
X039162Y016275D01*
X039076Y016170D01*
X039012Y016050D01*
X038973Y015920D01*
X038959Y015784D01*
X038973Y015649D01*
X039012Y015519D01*
X039076Y015399D01*
X039162Y015294D01*
X039268Y015207D01*
X039388Y015143D01*
X039518Y015104D01*
X039653Y015090D01*
X040047D01*
X040182Y015104D01*
X040312Y015143D01*
X040432Y015207D01*
X040538Y015294D01*
X040624Y015399D01*
X040688Y015519D01*
X040727Y015649D01*
X040741Y015784D01*
X040727Y015920D01*
X040688Y016050D01*
X040624Y016170D01*
X040538Y016275D01*
X040432Y016361D01*
X040312Y016425D01*
X040182Y016465D01*
X040047Y016478D01*
D02*
G37*
G36*
X048547Y013657D02*
X048153D01*
X048018Y013643D01*
X047888Y013604D01*
X047768Y013540D01*
X047662Y013453D01*
X047576Y013348D01*
X047512Y013228D01*
X047473Y013098D01*
X047459Y012963D01*
X047473Y012827D01*
X047512Y012697D01*
X047576Y012577D01*
X047662Y012472D01*
X047768Y012386D01*
X047888Y012322D01*
X048018Y012282D01*
X048153Y012269D01*
X048547D01*
X048682Y012282D01*
X048812Y012322D01*
X048932Y012386D01*
X049038Y012472D01*
X049124Y012577D01*
X049188Y012697D01*
X049227Y012827D01*
X049241Y012963D01*
X049227Y013098D01*
X049188Y013228D01*
X049124Y013348D01*
X049038Y013453D01*
X048932Y013540D01*
X048812Y013604D01*
X048682Y013643D01*
X048547Y013657D01*
D02*
G37*
G36*
Y007978D02*
X048153D01*
X048018Y007965D01*
X047888Y007925D01*
X047768Y007861D01*
X047662Y007775D01*
X047576Y007670D01*
X047512Y007550D01*
X047473Y007420D01*
X047459Y007284D01*
X047473Y007149D01*
X047512Y007019D01*
X047576Y006899D01*
X047662Y006794D01*
X047768Y006707D01*
X047888Y006643D01*
X048018Y006604D01*
X048153Y006590D01*
X048547D01*
X048682Y006604D01*
X048812Y006643D01*
X048932Y006707D01*
X049038Y006794D01*
X049124Y006899D01*
X049188Y007019D01*
X049227Y007149D01*
X049241Y007284D01*
X049227Y007420D01*
X049188Y007550D01*
X049124Y007670D01*
X049038Y007775D01*
X048932Y007861D01*
X048812Y007925D01*
X048682Y007965D01*
X048547Y007978D01*
D02*
G37*
G36*
X050671Y004025D02*
X050529D01*
X050389Y003997D01*
X050257Y003942D01*
X050138Y003863D01*
X050037Y003762D01*
X049958Y003643D01*
X049903Y003511D01*
X049875Y003371D01*
Y003229D01*
X049903Y003089D01*
X049958Y002957D01*
X050037Y002838D01*
X050138Y002737D01*
X050257Y002658D01*
X050389Y002603D01*
X050529Y002575D01*
X050671D01*
X050811Y002603D01*
X050943Y002658D01*
X051062Y002737D01*
X051163Y002838D01*
X051242Y002957D01*
X051297Y003089D01*
X051325Y003229D01*
Y003371D01*
X051297Y003511D01*
X051242Y003643D01*
X051163Y003762D01*
X051062Y003863D01*
X050943Y003942D01*
X050811Y003997D01*
X050671Y004025D01*
D02*
G37*
G36*
X037671D02*
X037529D01*
X037389Y003997D01*
X037257Y003942D01*
X037138Y003863D01*
X037037Y003762D01*
X036958Y003643D01*
X036903Y003511D01*
X036875Y003371D01*
Y003229D01*
X036903Y003089D01*
X036958Y002957D01*
X037037Y002838D01*
X037138Y002737D01*
X037257Y002658D01*
X037389Y002603D01*
X037529Y002575D01*
X037671D01*
X037811Y002603D01*
X037943Y002658D01*
X038062Y002737D01*
X038163Y002838D01*
X038242Y002957D01*
X038297Y003089D01*
X038325Y003229D01*
Y003371D01*
X038297Y003511D01*
X038242Y003643D01*
X038163Y003762D01*
X038062Y003863D01*
X037943Y003942D01*
X037811Y003997D01*
X037671Y004025D01*
D02*
G37*
G36*
X050721Y049775D02*
X050579D01*
X050439Y049747D01*
X050307Y049692D01*
X050188Y049613D01*
X050087Y049512D01*
X050008Y049393D01*
X049953Y049261D01*
X049925Y049121D01*
Y048979D01*
X049953Y048839D01*
X050008Y048707D01*
X050087Y048588D01*
X050188Y048487D01*
X050307Y048408D01*
X050439Y048353D01*
X050579Y048325D01*
X050721D01*
X050861Y048353D01*
X050993Y048408D01*
X051112Y048487D01*
X051213Y048588D01*
X051292Y048707D01*
X051347Y048839D01*
X051375Y048979D01*
Y049121D01*
X051347Y049261D01*
X051292Y049393D01*
X051213Y049512D01*
X051112Y049613D01*
X050993Y049692D01*
X050861Y049747D01*
X050721Y049775D01*
D02*
G37*
G36*
X037671Y049725D02*
X037529D01*
X037389Y049697D01*
X037257Y049642D01*
X037138Y049563D01*
X037037Y049462D01*
X036958Y049343D01*
X036903Y049211D01*
X036875Y049071D01*
Y048929D01*
X036903Y048789D01*
X036958Y048657D01*
X037037Y048538D01*
X037138Y048437D01*
X037257Y048358D01*
X037389Y048303D01*
X037529Y048275D01*
X037671D01*
X037811Y048303D01*
X037943Y048358D01*
X038062Y048437D01*
X038163Y048538D01*
X038242Y048657D01*
X038297Y048789D01*
X038325Y048929D01*
Y049071D01*
X038297Y049211D01*
X038242Y049343D01*
X038163Y049462D01*
X038062Y049563D01*
X037943Y049642D01*
X037811Y049697D01*
X037671Y049725D01*
D02*
G37*
G36*
X048547Y047728D02*
X048153D01*
X048018Y047715D01*
X047888Y047675D01*
X047768Y047611D01*
X047662Y047525D01*
X047576Y047420D01*
X047512Y047300D01*
X047473Y047170D01*
X047459Y047034D01*
X047473Y046899D01*
X047512Y046769D01*
X047576Y046649D01*
X047662Y046544D01*
X047768Y046457D01*
X047888Y046393D01*
X048018Y046354D01*
X048153Y046340D01*
X048547D01*
X048682Y046354D01*
X048812Y046393D01*
X048932Y046457D01*
X049038Y046544D01*
X049124Y046649D01*
X049188Y046769D01*
X049227Y046899D01*
X049241Y047034D01*
X049227Y047170D01*
X049188Y047300D01*
X049124Y047420D01*
X049038Y047525D01*
X048932Y047611D01*
X048812Y047675D01*
X048682Y047715D01*
X048547Y047728D01*
D02*
G37*
G36*
Y042050D02*
X048153D01*
X048018Y042036D01*
X047888Y041997D01*
X047768Y041933D01*
X047662Y041846D01*
X047576Y041741D01*
X047512Y041621D01*
X047473Y041491D01*
X047459Y041356D01*
X047473Y041220D01*
X047512Y041090D01*
X047576Y040970D01*
X047662Y040865D01*
X047768Y040779D01*
X047888Y040715D01*
X048018Y040675D01*
X048153Y040662D01*
X048547D01*
X048682Y040675D01*
X048812Y040715D01*
X048932Y040779D01*
X049038Y040865D01*
X049124Y040970D01*
X049188Y041090D01*
X049227Y041220D01*
X049241Y041356D01*
X049227Y041491D01*
X049188Y041621D01*
X049124Y041741D01*
X049038Y041846D01*
X048932Y041933D01*
X048812Y041997D01*
X048682Y042036D01*
X048547Y042050D01*
D02*
G37*
G36*
X040047Y039178D02*
X039653D01*
X039518Y039165D01*
X039388Y039125D01*
X039268Y039061D01*
X039162Y038975D01*
X039076Y038870D01*
X039012Y038750D01*
X038973Y038620D01*
X038959Y038484D01*
X038973Y038349D01*
X039012Y038219D01*
X039076Y038099D01*
X039162Y037994D01*
X039268Y037907D01*
X039388Y037843D01*
X039518Y037804D01*
X039653Y037790D01*
X040047D01*
X040182Y037804D01*
X040312Y037843D01*
X040432Y037907D01*
X040538Y037994D01*
X040624Y038099D01*
X040688Y038219D01*
X040727Y038349D01*
X040741Y038484D01*
X040727Y038620D01*
X040688Y038750D01*
X040624Y038870D01*
X040538Y038975D01*
X040432Y039061D01*
X040312Y039125D01*
X040182Y039165D01*
X040047Y039178D01*
D02*
G37*
G36*
X048547Y036371D02*
X048153D01*
X048018Y036358D01*
X047888Y036318D01*
X047768Y036254D01*
X047662Y036168D01*
X047576Y036063D01*
X047512Y035943D01*
X047473Y035812D01*
X047459Y035677D01*
X047473Y035542D01*
X047512Y035412D01*
X047576Y035292D01*
X047662Y035186D01*
X047768Y035100D01*
X047888Y035036D01*
X048018Y034997D01*
X048153Y034983D01*
X048547D01*
X048682Y034997D01*
X048812Y035036D01*
X048932Y035100D01*
X049038Y035186D01*
X049124Y035292D01*
X049188Y035412D01*
X049227Y035542D01*
X049241Y035677D01*
X049227Y035812D01*
X049188Y035943D01*
X049124Y036063D01*
X049038Y036168D01*
X048932Y036254D01*
X048812Y036318D01*
X048682Y036358D01*
X048547Y036371D01*
D02*
G37*
G36*
Y030692D02*
X048153D01*
X048018Y030679D01*
X047888Y030640D01*
X047768Y030575D01*
X047662Y030489D01*
X047576Y030384D01*
X047512Y030264D01*
X047473Y030134D01*
X047459Y029999D01*
X047473Y029863D01*
X047512Y029733D01*
X047576Y029613D01*
X047662Y029508D01*
X047768Y029422D01*
X047888Y029357D01*
X048018Y029318D01*
X048153Y029305D01*
X048547D01*
X048682Y029318D01*
X048812Y029357D01*
X048932Y029422D01*
X049038Y029508D01*
X049124Y029613D01*
X049188Y029733D01*
X049227Y029863D01*
X049241Y029999D01*
X049227Y030134D01*
X049188Y030264D01*
X049124Y030384D01*
X049038Y030489D01*
X048932Y030575D01*
X048812Y030640D01*
X048682Y030679D01*
X048547Y030692D01*
D02*
G37*
%LPD*%
D13*
X048596Y012909D02*
X048650Y012963D01*
D18*
X048350Y022351D02*
D03*
Y024320D02*
D03*
X039850Y015784D02*
D03*
Y013816D02*
D03*
Y038484D02*
D03*
Y036516D02*
D03*
X048350Y045066D02*
D03*
Y047034D02*
D03*
Y039387D02*
D03*
Y041356D02*
D03*
Y033709D02*
D03*
Y035677D02*
D03*
Y028030D02*
D03*
Y029999D02*
D03*
Y005316D02*
D03*
Y007284D02*
D03*
Y010994D02*
D03*
Y012963D02*
D03*
Y016673D02*
D03*
Y018641D02*
D03*
D19*
X037600Y003300D02*
D03*
X050600D02*
D03*
X050650Y049050D02*
D03*
X037600Y049000D02*
D03*
M02*
