G04*
G04 #@! TF.GenerationSoftware,Altium Limited,CircuitMaker,2.0.3 (51)*
G04*
G04 Layer_Color=15132400*
%FSAX24Y24*%
%MOIN*%
G70*
G04*
G04 #@! TF.SameCoordinates,AC49E966-F875-4E81-9CB4-5C45FD5EEA16*
G04*
G04*
G04 #@! TF.FilePolarity,Positive*
G04*
G01*
G75*
%ADD10C,0.0080*%
%ADD11C,0.0080*%
%ADD12C,0.0120*%
%ADD13C,0.0100*%
D10*
X044767Y025304D02*
X050043D01*
X044767Y021367D02*
Y025304D01*
Y021367D02*
X050043D01*
X038157Y012831D02*
X043433D01*
Y016768D01*
X038157D02*
X043433D01*
X038157Y035531D02*
X043433D01*
Y039469D01*
X038157D02*
X043433D01*
X044767Y048018D02*
X050043D01*
X044767Y044081D02*
Y048018D01*
Y044081D02*
X050043D01*
X044767Y042340D02*
X050043D01*
X044767Y038403D02*
Y042340D01*
Y038403D02*
X050043D01*
X044767Y036661D02*
X050043D01*
X044767Y032724D02*
Y036661D01*
Y032724D02*
X050043D01*
X044767Y030983D02*
X050043D01*
X044767Y027046D02*
Y030983D01*
Y027046D02*
X050043D01*
X044767Y008268D02*
X050043D01*
X044767Y004331D02*
Y008268D01*
Y004331D02*
X050043D01*
X044767Y013947D02*
X050043D01*
X044767Y010010D02*
Y013947D01*
Y010010D02*
X050043D01*
X044767Y019626D02*
X050043D01*
X044767Y015689D02*
Y019626D01*
Y015689D02*
X050043D01*
D11*
Y021367D02*
Y025304D01*
X038157Y012831D02*
Y016768D01*
Y035531D02*
Y039469D01*
X050043Y044081D02*
Y048018D01*
Y038403D02*
Y042340D01*
Y032724D02*
Y036661D01*
Y027046D02*
Y030983D01*
Y004331D02*
Y008268D01*
Y010010D02*
Y013947D01*
Y015689D02*
Y019626D01*
D12*
X037217Y015784D02*
X037683D01*
X037450Y016018D02*
Y015551D01*
X037217Y013816D02*
X037683D01*
X037217Y038484D02*
X037683D01*
X037450Y038718D02*
Y038251D01*
X037217Y036516D02*
X037683D01*
X050517Y047034D02*
X050983D01*
X050750Y047267D02*
Y046801D01*
X050517Y045065D02*
X050983D01*
X050517Y041355D02*
X050983D01*
X050750Y041588D02*
Y041122D01*
X050517Y039390D02*
X050983D01*
X050517Y035680D02*
X050983D01*
X050750Y035913D02*
Y035447D01*
X050517Y033710D02*
X050983D01*
X050517Y030000D02*
X050983D01*
X050750Y030233D02*
Y029767D01*
X050517Y028030D02*
X050983D01*
X050517Y024320D02*
X050983D01*
X050750Y024553D02*
Y024087D01*
X050517Y022351D02*
X050983D01*
X050517Y018641D02*
X050983D01*
X050750Y018875D02*
Y018408D01*
X050517Y016673D02*
X050983D01*
X050517Y012963D02*
X050983D01*
X050750Y013196D02*
Y012730D01*
X050517Y010994D02*
X050983D01*
X050517Y005316D02*
X050983D01*
X050517Y007284D02*
X050983D01*
X050750Y007518D02*
Y007051D01*
D13*
X044830Y026040D02*
X045230D01*
X045030Y026240D02*
Y025840D01*
X045430Y025740D02*
X045630D01*
X045530D01*
Y026340D01*
X045430Y026240D01*
X046330Y025740D02*
X045930D01*
X046330Y026140D01*
Y026240D01*
X046230Y026340D01*
X046030D01*
X045930Y026240D01*
X046529Y026340D02*
Y025940D01*
X046729Y025740D01*
X046929Y025940D01*
Y026340D01*
X047129Y025640D02*
X047529D01*
X048129Y026240D02*
X048029Y026340D01*
X047829D01*
X047729Y026240D01*
Y026140D01*
X047829Y026040D01*
X048029D01*
X048129Y025940D01*
Y025840D01*
X048029Y025740D01*
X047829D01*
X047729Y025840D01*
X048329Y026340D02*
Y025740D01*
X048529Y025940D01*
X048729Y025740D01*
Y026340D01*
X048929Y025740D02*
X049129D01*
X049029D01*
Y026340D01*
X048929Y026240D01*
X044830Y009010D02*
X045230D01*
X045030Y009210D02*
Y008810D01*
X045430Y008710D02*
X045630D01*
X045530D01*
Y009310D01*
X045430Y009210D01*
X046330Y008710D02*
X045930D01*
X046330Y009110D01*
Y009210D01*
X046230Y009310D01*
X046030D01*
X045930Y009210D01*
X046529Y009310D02*
Y008910D01*
X046729Y008710D01*
X046929Y008910D01*
Y009310D01*
X047129Y008610D02*
X047529D01*
X048129Y009210D02*
X048029Y009310D01*
X047829D01*
X047729Y009210D01*
Y009110D01*
X047829Y009010D01*
X048029D01*
X048129Y008910D01*
Y008810D01*
X048029Y008710D01*
X047829D01*
X047729Y008810D01*
X048329Y009310D02*
Y008710D01*
X048529Y008910D01*
X048729Y008710D01*
Y009310D01*
X049229Y008710D02*
Y009310D01*
X048929Y009010D01*
X049329D01*
X044830Y014690D02*
X045230D01*
X045030Y014890D02*
Y014490D01*
X045430Y014390D02*
X045630D01*
X045530D01*
Y014990D01*
X045430Y014890D01*
X046330Y014390D02*
X045930D01*
X046330Y014790D01*
Y014890D01*
X046230Y014990D01*
X046030D01*
X045930Y014890D01*
X046529Y014990D02*
Y014590D01*
X046729Y014390D01*
X046929Y014590D01*
Y014990D01*
X047129Y014290D02*
X047529D01*
X048129Y014890D02*
X048029Y014990D01*
X047829D01*
X047729Y014890D01*
Y014790D01*
X047829Y014690D01*
X048029D01*
X048129Y014590D01*
Y014490D01*
X048029Y014390D01*
X047829D01*
X047729Y014490D01*
X048329Y014990D02*
Y014390D01*
X048529Y014590D01*
X048729Y014390D01*
Y014990D01*
X048929Y014890D02*
X049029Y014990D01*
X049229D01*
X049329Y014890D01*
Y014790D01*
X049229Y014690D01*
X049129D01*
X049229D01*
X049329Y014590D01*
Y014490D01*
X049229Y014390D01*
X049029D01*
X048929Y014490D01*
X044830Y020370D02*
X045230D01*
X045030Y020570D02*
Y020170D01*
X045430Y020070D02*
X045630D01*
X045530D01*
Y020670D01*
X045430Y020570D01*
X046330Y020070D02*
X045930D01*
X046330Y020470D01*
Y020570D01*
X046230Y020670D01*
X046030D01*
X045930Y020570D01*
X046529Y020670D02*
Y020270D01*
X046729Y020070D01*
X046929Y020270D01*
Y020670D01*
X047129Y019970D02*
X047529D01*
X048129Y020570D02*
X048029Y020670D01*
X047829D01*
X047729Y020570D01*
Y020470D01*
X047829Y020370D01*
X048029D01*
X048129Y020270D01*
Y020170D01*
X048029Y020070D01*
X047829D01*
X047729Y020170D01*
X048329Y020670D02*
Y020070D01*
X048529Y020270D01*
X048729Y020070D01*
Y020670D01*
X049329Y020070D02*
X048929D01*
X049329Y020470D01*
Y020570D01*
X049229Y020670D01*
X049029D01*
X048929Y020570D01*
X038220Y017690D02*
X038620D01*
X038420Y017890D02*
Y017490D01*
X038820Y017390D02*
X039020D01*
X038920D01*
Y017990D01*
X038820Y017890D01*
X039720Y017390D02*
X039320D01*
X039720Y017790D01*
Y017890D01*
X039620Y017990D01*
X039420D01*
X039320Y017890D01*
X039919Y017990D02*
Y017590D01*
X040119Y017390D01*
X040319Y017590D01*
Y017990D01*
X040519Y017290D02*
X040919D01*
X041119Y017990D02*
X041319D01*
X041219D01*
Y017390D01*
X041119D01*
X041319D01*
X041619D02*
Y017990D01*
X042019Y017390D01*
Y017990D01*
X044830Y031720D02*
X045230D01*
X045030Y031920D02*
Y031520D01*
X045830Y032020D02*
X045430D01*
Y031720D01*
X045630Y031820D01*
X045730D01*
X045830Y031720D01*
Y031520D01*
X045730Y031420D01*
X045530D01*
X045430Y031520D01*
X046030Y032020D02*
Y031620D01*
X046230Y031420D01*
X046429Y031620D01*
Y032020D01*
X046629Y031420D02*
Y032020D01*
X046929D01*
X047029Y031920D01*
Y031720D01*
X046929Y031620D01*
X046629D01*
X046829D02*
X047029Y031420D01*
X047629Y032020D02*
X047229D01*
Y031420D01*
X047629D01*
X047229Y031720D02*
X047429D01*
X048229Y032020D02*
X047829D01*
Y031720D01*
X048029D01*
X047829D01*
Y031420D01*
X048429Y031320D02*
X048829D01*
X049329Y031420D02*
Y032020D01*
X049029Y031720D01*
X049429D01*
X044830Y037400D02*
X045230D01*
X045030Y037600D02*
Y037200D01*
X045830Y037700D02*
X045430D01*
Y037400D01*
X045630Y037500D01*
X045730D01*
X045830Y037400D01*
Y037200D01*
X045730Y037100D01*
X045530D01*
X045430Y037200D01*
X046030Y037700D02*
Y037300D01*
X046230Y037100D01*
X046429Y037300D01*
Y037700D01*
X046629Y037100D02*
Y037700D01*
X046929D01*
X047029Y037600D01*
Y037400D01*
X046929Y037300D01*
X046629D01*
X046829D02*
X047029Y037100D01*
X047629Y037700D02*
X047229D01*
Y037100D01*
X047629D01*
X047229Y037400D02*
X047429D01*
X048229Y037700D02*
X047829D01*
Y037400D01*
X048029D01*
X047829D01*
Y037100D01*
X048429Y037000D02*
X048829D01*
X049029Y037600D02*
X049129Y037700D01*
X049329D01*
X049429Y037600D01*
Y037500D01*
X049329Y037400D01*
X049229D01*
X049329D01*
X049429Y037300D01*
Y037200D01*
X049329Y037100D01*
X049129D01*
X049029Y037200D01*
X044830Y043080D02*
X045230D01*
X045030Y043280D02*
Y042880D01*
X045830Y043380D02*
X045430D01*
Y043080D01*
X045630Y043180D01*
X045730D01*
X045830Y043080D01*
Y042880D01*
X045730Y042780D01*
X045530D01*
X045430Y042880D01*
X046030Y043380D02*
Y042980D01*
X046230Y042780D01*
X046429Y042980D01*
Y043380D01*
X046629Y042780D02*
Y043380D01*
X046929D01*
X047029Y043280D01*
Y043080D01*
X046929Y042980D01*
X046629D01*
X046829D02*
X047029Y042780D01*
X047629Y043380D02*
X047229D01*
Y042780D01*
X047629D01*
X047229Y043080D02*
X047429D01*
X048229Y043380D02*
X047829D01*
Y043080D01*
X048029D01*
X047829D01*
Y042780D01*
X048429Y042680D02*
X048829D01*
X049429Y042780D02*
X049029D01*
X049429Y043180D01*
Y043280D01*
X049329Y043380D01*
X049129D01*
X049029Y043280D01*
X044830Y048760D02*
X045230D01*
X045030Y048960D02*
Y048560D01*
X045830Y049060D02*
X045430D01*
Y048760D01*
X045630Y048860D01*
X045730D01*
X045830Y048760D01*
Y048560D01*
X045730Y048460D01*
X045530D01*
X045430Y048560D01*
X046030Y049060D02*
Y048660D01*
X046230Y048460D01*
X046429Y048660D01*
Y049060D01*
X046629Y048460D02*
Y049060D01*
X046929D01*
X047029Y048960D01*
Y048760D01*
X046929Y048660D01*
X046629D01*
X046829D02*
X047029Y048460D01*
X047629Y049060D02*
X047229D01*
Y048460D01*
X047629D01*
X047229Y048760D02*
X047429D01*
X048229Y049060D02*
X047829D01*
Y048760D01*
X048029D01*
X047829D01*
Y048460D01*
X048429Y048360D02*
X048829D01*
X049029Y048460D02*
X049229D01*
X049129D01*
Y049060D01*
X049029Y048960D01*
X038220Y040390D02*
X038620D01*
X038420Y040590D02*
Y040190D01*
X039220Y040690D02*
X038820D01*
Y040390D01*
X039020Y040490D01*
X039120D01*
X039220Y040390D01*
Y040190D01*
X039120Y040090D01*
X038920D01*
X038820Y040190D01*
X039420Y040690D02*
Y040290D01*
X039620Y040090D01*
X039819Y040290D01*
Y040690D01*
X040019Y039990D02*
X040419D01*
X040619Y040690D02*
X040819D01*
X040719D01*
Y040090D01*
X040619D01*
X040819D01*
X041119D02*
Y040690D01*
X041519Y040090D01*
Y040690D01*
M02*
