G04*
G04 #@! TF.GenerationSoftware,Altium Limited,CircuitMaker,2.0.3 (51)*
G04*
G04 Layer_Physical_Order=1*
G04 Layer_Color=25308*
%FSAX24Y24*%
%MOIN*%
G70*
G04*
G04 #@! TF.SameCoordinates,AC49E966-F875-4E81-9CB4-5C45FD5EEA16*
G04*
G04*
G04 #@! TF.FilePolarity,Positive*
G04*
G01*
G75*
%ADD16C,0.0800*%
%ADD17C,0.0400*%
%ADD18O,0.1575X0.1181*%
%ADD19C,0.0600*%
G36*
X051600Y002300D02*
X036600D01*
Y026100D01*
X051600D01*
Y002300D01*
D02*
G37*
%LPC*%
G36*
X048547Y023045D02*
X048153D01*
X048018Y023032D01*
X047888Y022993D01*
X047768Y022928D01*
X047662Y022842D01*
X047576Y022737D01*
X047512Y022617D01*
X047473Y022487D01*
X047459Y022351D01*
X047473Y022216D01*
X047512Y022086D01*
X047576Y021966D01*
X047662Y021861D01*
X047768Y021775D01*
X047888Y021710D01*
X048018Y021671D01*
X048153Y021658D01*
X048547D01*
X048682Y021671D01*
X048812Y021710D01*
X048932Y021775D01*
X049038Y021861D01*
X049124Y021966D01*
X049188Y022086D01*
X049227Y022216D01*
X049241Y022351D01*
X049227Y022487D01*
X049188Y022617D01*
X049124Y022737D01*
X049038Y022842D01*
X048932Y022928D01*
X048812Y022993D01*
X048682Y023032D01*
X048547Y023045D01*
D02*
G37*
G36*
X048650Y018944D02*
X048350D01*
X048272Y018934D01*
X048199Y018903D01*
X048136Y018855D01*
X048088Y018793D01*
X048058Y018720D01*
X048047Y018641D01*
X048058Y018563D01*
X048088Y018490D01*
X048136Y018427D01*
X048199Y018379D01*
X048272Y018349D01*
X048350Y018339D01*
X048650D01*
X048728Y018349D01*
X048801Y018379D01*
X048864Y018427D01*
X048912Y018490D01*
X048942Y018563D01*
X048953Y018641D01*
X048942Y018720D01*
X048912Y018793D01*
X048864Y018855D01*
X048801Y018903D01*
X048728Y018934D01*
X048650Y018944D01*
D02*
G37*
G36*
X048547Y017367D02*
X048153D01*
X048018Y017353D01*
X047888Y017314D01*
X047768Y017250D01*
X047662Y017164D01*
X047576Y017058D01*
X047512Y016938D01*
X047473Y016808D01*
X047459Y016673D01*
X047473Y016538D01*
X047512Y016407D01*
X047576Y016287D01*
X047662Y016182D01*
X047768Y016096D01*
X047888Y016032D01*
X048018Y015992D01*
X048153Y015979D01*
X048547D01*
X048682Y015992D01*
X048812Y016032D01*
X048932Y016096D01*
X049038Y016182D01*
X049124Y016287D01*
X049188Y016407D01*
X049227Y016538D01*
X049241Y016673D01*
X049227Y016808D01*
X049188Y016938D01*
X049124Y017058D01*
X049038Y017164D01*
X048932Y017250D01*
X048812Y017314D01*
X048682Y017353D01*
X048547Y017367D01*
D02*
G37*
G36*
X040047Y014510D02*
X039653D01*
X039518Y014496D01*
X039388Y014457D01*
X039268Y014393D01*
X039162Y014306D01*
X039076Y014201D01*
X039012Y014081D01*
X038973Y013951D01*
X038959Y013816D01*
X038973Y013680D01*
X039012Y013550D01*
X039076Y013430D01*
X039162Y013325D01*
X039268Y013239D01*
X039388Y013175D01*
X039518Y013135D01*
X039653Y013122D01*
X040047D01*
X040182Y013135D01*
X040312Y013175D01*
X040432Y013239D01*
X040538Y013325D01*
X040624Y013430D01*
X040688Y013550D01*
X040727Y013680D01*
X040741Y013816D01*
X040727Y013951D01*
X040688Y014081D01*
X040624Y014201D01*
X040538Y014306D01*
X040432Y014393D01*
X040312Y014457D01*
X040182Y014496D01*
X040047Y014510D01*
D02*
G37*
G36*
X048650Y013265D02*
X048350D01*
X048272Y013255D01*
X048199Y013225D01*
X048136Y013177D01*
X048088Y013114D01*
X048058Y013041D01*
X048047Y012963D01*
X048058Y012885D01*
X048088Y012812D01*
X048136Y012749D01*
X048199Y012701D01*
X048272Y012671D01*
X048350Y012660D01*
X048650D01*
X048728Y012671D01*
X048801Y012701D01*
X048864Y012749D01*
X048912Y012812D01*
X048942Y012885D01*
X048953Y012963D01*
X048942Y013041D01*
X048912Y013114D01*
X048864Y013177D01*
X048801Y013225D01*
X048728Y013255D01*
X048650Y013265D01*
D02*
G37*
G36*
X048547Y011688D02*
X048153D01*
X048018Y011675D01*
X047888Y011635D01*
X047768Y011571D01*
X047662Y011485D01*
X047576Y011380D01*
X047512Y011260D01*
X047473Y011130D01*
X047459Y010994D01*
X047473Y010859D01*
X047512Y010729D01*
X047576Y010609D01*
X047662Y010504D01*
X047768Y010417D01*
X047888Y010353D01*
X048018Y010314D01*
X048153Y010300D01*
X048547D01*
X048682Y010314D01*
X048812Y010353D01*
X048932Y010417D01*
X049038Y010504D01*
X049124Y010609D01*
X049188Y010729D01*
X049227Y010859D01*
X049241Y010994D01*
X049227Y011130D01*
X049188Y011260D01*
X049124Y011380D01*
X049038Y011485D01*
X048932Y011571D01*
X048812Y011635D01*
X048682Y011675D01*
X048547Y011688D01*
D02*
G37*
G36*
X048650Y007587D02*
X048350D01*
X048272Y007577D01*
X048199Y007546D01*
X048136Y007498D01*
X048088Y007436D01*
X048058Y007363D01*
X048047Y007284D01*
X048058Y007206D01*
X048088Y007133D01*
X048136Y007070D01*
X048199Y007022D01*
X048272Y006992D01*
X048350Y006982D01*
X048650D01*
X048728Y006992D01*
X048801Y007022D01*
X048864Y007070D01*
X048912Y007133D01*
X048942Y007206D01*
X048953Y007284D01*
X048942Y007363D01*
X048912Y007436D01*
X048864Y007498D01*
X048801Y007546D01*
X048728Y007577D01*
X048650Y007587D01*
D02*
G37*
G36*
X048547Y006010D02*
X048153D01*
X048018Y005996D01*
X047888Y005957D01*
X047768Y005893D01*
X047662Y005806D01*
X047576Y005701D01*
X047512Y005581D01*
X047473Y005451D01*
X047459Y005316D01*
X047473Y005180D01*
X047512Y005050D01*
X047576Y004930D01*
X047662Y004825D01*
X047768Y004739D01*
X047888Y004675D01*
X048018Y004635D01*
X048153Y004622D01*
X048547D01*
X048682Y004635D01*
X048812Y004675D01*
X048932Y004739D01*
X049038Y004825D01*
X049124Y004930D01*
X049188Y005050D01*
X049227Y005180D01*
X049241Y005316D01*
X049227Y005451D01*
X049188Y005581D01*
X049124Y005701D01*
X049038Y005806D01*
X048932Y005893D01*
X048812Y005957D01*
X048682Y005996D01*
X048547Y006010D01*
D02*
G37*
G36*
X050671Y004025D02*
X050529D01*
X050389Y003997D01*
X050257Y003942D01*
X050138Y003863D01*
X050037Y003762D01*
X049958Y003643D01*
X049903Y003511D01*
X049875Y003371D01*
Y003229D01*
X049903Y003089D01*
X049958Y002957D01*
X050037Y002838D01*
X050138Y002737D01*
X050257Y002658D01*
X050389Y002603D01*
X050529Y002575D01*
X050671D01*
X050811Y002603D01*
X050943Y002658D01*
X051062Y002737D01*
X051163Y002838D01*
X051242Y002957D01*
X051297Y003089D01*
X051325Y003229D01*
Y003371D01*
X051297Y003511D01*
X051242Y003643D01*
X051163Y003762D01*
X051062Y003863D01*
X050943Y003942D01*
X050811Y003997D01*
X050671Y004025D01*
D02*
G37*
G36*
X037671D02*
X037529D01*
X037389Y003997D01*
X037257Y003942D01*
X037138Y003863D01*
X037037Y003762D01*
X036958Y003643D01*
X036903Y003511D01*
X036875Y003371D01*
Y003229D01*
X036903Y003089D01*
X036958Y002957D01*
X037037Y002838D01*
X037138Y002737D01*
X037257Y002658D01*
X037389Y002603D01*
X037529Y002575D01*
X037671D01*
X037811Y002603D01*
X037943Y002658D01*
X038062Y002737D01*
X038163Y002838D01*
X038242Y002957D01*
X038297Y003089D01*
X038325Y003229D01*
Y003371D01*
X038297Y003511D01*
X038242Y003643D01*
X038163Y003762D01*
X038062Y003863D01*
X037943Y003942D01*
X037811Y003997D01*
X037671Y004025D01*
D02*
G37*
%LPD*%
D16*
X046620Y029999D02*
X048350D01*
X046620Y047034D02*
X048350D01*
X045856Y046306D02*
X046620Y047034D01*
X045856Y041350D02*
Y046306D01*
Y030744D02*
X046620Y029999D01*
X045856Y030744D02*
Y035750D01*
Y038550D02*
Y041350D01*
Y035750D02*
Y038550D01*
X039850Y038484D02*
X045790D01*
X045929Y035677D02*
X048350D01*
X045861Y041356D02*
X048350D01*
D17*
X045790Y038484D02*
X045856Y038550D01*
X048350Y012963D02*
X048650D01*
X048350Y007284D02*
X048650D01*
X048350Y018641D02*
X048650D01*
X045856Y035750D02*
X045929Y035677D01*
X045856Y041350D02*
X045861Y041356D01*
X048350D02*
X048650D01*
X048350Y035677D02*
X048650D01*
X048350Y029999D02*
X048650D01*
D18*
X048350Y022351D02*
D03*
Y024320D02*
D03*
X039850Y015784D02*
D03*
Y013816D02*
D03*
Y038484D02*
D03*
Y036516D02*
D03*
X048350Y045066D02*
D03*
Y047034D02*
D03*
Y039387D02*
D03*
Y041356D02*
D03*
Y033709D02*
D03*
Y035677D02*
D03*
Y028030D02*
D03*
Y029999D02*
D03*
Y005316D02*
D03*
Y007284D02*
D03*
Y010994D02*
D03*
Y012963D02*
D03*
Y016673D02*
D03*
Y018641D02*
D03*
D19*
X037600Y003300D02*
D03*
X050600D02*
D03*
X050650Y049050D02*
D03*
X037600Y049000D02*
D03*
M02*
