M48
;Layer_Color=6321
;FILE_FORMAT=2:4
INCH
;TYPE=PLATED
T1F00S00C0.0630
T2F00S00C0.1250
%
T01
X039850Y013816
X048350Y012963
Y010994
Y007284
Y005316
Y016673
Y018641
Y022351
Y024320
Y028030
Y029999
X039850Y015784
Y036516
Y038484
X048350Y039387
Y041356
Y045066
Y035677
Y033709
Y047034
T02
X037600Y003300
X050600
X050650Y049050
X037600Y049000
M30
